Patient4_TMGait_0pt5_02_left_41_EMG.mot
version=1
nRows=30
nColumns=33
inDegrees=no
endheader
time	1LAddLong	2LGlutMax	3LGlutMed	4LIliopsoas	5LSemiMemb	6LBicFemLong	7LRecFem	8LVastMed	9LVastLat	10LGasMed	11LTibAnt	12lTibPost	13LPeroneusLong	14LSol	15LExtDigLong	16LFlexDigLong	17RAddLong	18RGlutMax	19RGlutMed	20RIliopsoas	21RSemiMemb	22RBicFemLong	23RRecFem	24RVastMed	25RVastLat	26RGasMed	27RTibAnt	28RTibPost	29RPeroneusLong	30RSol	31RExtDigLong	32RFlexDigLong
53.8	-0.002899	-0.018311	-0.36728	0.001221	-0.079651	-0.016937	-0.05249	0.017853	-0.026093	-0.079346	-0.008392	0.00061	-0.009155	0.064545	0.068512	-0.015411	0.060577	-0.1506	0.24674	-0.070496	0.082092	-0.018921	-0.053406	-0.49515	-0.038757	-0.004883	-0.028229	-0.011444	-0.49683	0.013428	0.003967	-0.002594
53.801	-0.00061	-0.037537	-0.36606	-0.003052	-0.074158	0.00412	-0.053253	0.008698	-0.027161	-0.066376	0.000916	0.012512	0.003052	0.089722	0.066223	-0.015259	0.007782	-0.23819	0.13199	-0.00412	0.040741	-0.010681	-0.018463	-0.40344	-0.023804	-0.008545	0.010529	-0.008698	-0.29022	0.044708	-0.000458	-0.010834
53.802	0.004578	-0.021362	-0.35034	0.000916	-0.098724	0.036469	-0.051727	0.005341	-0.019836	0.082397	0.002289	0.004272	-0.018311	0.06958	0.049591	-0.003967	0.022888	-0.25559	0.40878	0.032349	0.062103	0.021515	-0.16571	-0.27176	0.00061	-0.016479	0.020142	-0.007324	-0.061493	0.02655	-0.00061	-0.007935
53.803	0.015717	0.00351	-0.3302	-0.009766	0.001526	0.004425	-0.045166	0.010681	0.005341	-0.12405	0.00885	0.001221	-0.032196	0.02594	0.020599	-0.007477	0.028992	-0.23346	0.12787	0.039978	0.13626	0.006714	-0.23331	-0.18036	0.002441	-0.011139	0.018616	-0.000763	-0.19775	0.017395	-0.000458	-0.008392
53.804	0.019531	-0.030823	-0.31067	0.016174	0.066528	-0.040894	-0.037842	0.002441	-0.012665	-0.22064	0.024109	0.000305	-0.045166	0.026703	-0.004578	-0.012512	0.059204	-0.36545	-0.13657	0.0177	0.13534	-0.032349	-0.1622	-0.14069	-0.046997	-0.011444	0.050659	-0.005646	-0.24887	-0.018311	0.00351	-0.00473
53.805	0.020905	-0.020294	-0.27283	0.017853	0.038605	-0.037079	-0.044708	0.005493	-0.00885	0.19302	0.02243	-0.001984	0.01358	0.016022	-0.037994	-0.005188	0.103	-0.36728	0.000458	0.004578	0.050507	-0.050812	-0.03418	-0.19653	-0.039978	-0.014496	0.12314	-0.005188	-0.40451	-0.021362	-0.000763	-0.008698
53.806	0.014343	0.040436	-0.25528	0.010529	0.067291	-0.009155	-0.052948	0.006409	-0.003357	0.77042	0.032959	0.000458	0.045929	0.081787	-0.014343	-0.019684	0.10269	-0.345	0.004883	0.020447	-0.009003	-0.032196	-0.033875	-0.2095	-0.005951	-0.007324	0.11276	-0.005188	-0.24231	-0.046082	0.002899	-0.012054
53.807	0.021362	0.070343	-0.27298	0.014496	0.0383	-0.037384	-0.057831	-0.000458	0.018921	1.0596	0.04303	-0.003967	0.001678	0.089111	0.036316	0.003967	0.004425	-0.34561	0.27451	-0.019989	-0.1152	0.015411	-0.028687	-0.1236	0.072937	-0.006714	0.074768	-0.001373	0.24185	-0.063019	0.001831	-0.011139
53.808	0.023651	0.032501	-0.2507	0.016937	0.016937	-0.018158	-0.055237	0.002289	0.020447	1.1009	0.031128	-0.012207	-0.005341	0.09552	0.059052	-0.093689	-0.032043	-0.36179	-0.049438	-0.077667	-0.1294	0.023193	-0.018616	-0.11917	0.081787	0.003662	0.041046	-0.003815	-0.46188	-0.097961	0.009155	-0.005493
53.809	0.023193	0.018463	-0.30762	0.009613	0.10407	-0.037384	-0.042572	-0.002136	0.001221	0.93399	-0.005035	-0.017395	0.010529	0.18829	0.06073	0.2385	-0.018005	-0.38208	-0.59525	-0.080566	0.065155	0.024109	-0.057068	-0.057678	0.037079	-0.003815	-0.050964	-0.007172	-0.32852	-0.088654	-0.000153	-0.007782
53.81	0.019073	0.047302	-0.20233	-0.000458	0.080872	-0.057373	-0.039673	0	-0.00473	0.39627	-0.030365	-0.068817	-0.009918	0.28046	0.016937	-0.40359	-0.021515	-0.3392	-0.42129	-0.045166	0.22018	-0.073242	-0.099487	-0.047913	0.014648	-0.010376	-0.03067	-0.005951	-0.18738	-0.027618	0.002289	-0.019684
53.811	0.025635	0.089722	-0.15976	-0.009003	0.061951	-0.017853	-0.039673	0.011139	-0.012054	0.1796	-0.019836	-0.19806	-0.080414	0.38223	-0.027161	0.001068	-0.010071	-0.20599	-0.1738	-0.039978	0.37048	-0.04776	-0.11429	-0.12528	0.013885	-0.007324	0.069275	0.000305	-0.47562	-0.031281	0.001221	-0.007019
53.812	0.016632	0.12634	-0.15686	0.001221	0.049133	0.02655	-0.065155	0.005951	-0.016632	-0.15747	-0.017853	0.35538	-0.013123	0.33661	-0.050964	-0.11536	0.013885	-0.17502	-0.10513	-0.017548	0.17654	0.080261	-0.08667	-0.24323	-0.001373	-0.001526	0.075684	-0.009308	-0.11612	0.007324	0.00351	-0.009613
53.813	0.013275	0.12802	-0.13443	0.002899	0.039063	0.12817	-0.098267	0.003052	-0.022736	-0.32593	-0.013885	-0.013123	0.12909	0.15778	-0.064392	0.30045	-0.011902	-0.11505	-0.2948	0.031586	-0.042572	0.25879	-0.1236	-0.28091	0.000305	-0.003052	0.093079	-0.007019	0.16632	0.005798	0.002594	-0.011597
53.814	0.015259	0.15533	-0.103	0.009308	-0.034027	0.10452	-0.078888	0.006561	-0.053711	0.14557	-0.002136	0.028687	0.15121	-0.32013	-0.076294	0.3627	-0.010376	-0.13657	0.51865	0.095367	-0.099335	0.26672	-0.082855	-0.24674	-0.023346	-0.007935	-0.004272	-0.006409	-0.075836	0.009155	0.003204	0.002594
53.815	0.013123	0.20874	-0.093689	-0.00412	-0.12756	0.059052	-0.071564	0.004272	-0.036774	-0.29694	0.006104	0.032959	0.019836	-0.54199	-0.011902	-0.1503	0.011444	-0.17212	-0.01297	0.089722	-0.073242	0.17838	-0.04364	-0.16052	0.007019	-0.016327	0.11169	-0.011139	-0.20081	0.011597	-0.000305	-0.010681
53.816	0.013733	0.18829	-0.093231	0.008087	-0.10666	0.017242	-0.103	0.003204	-0.034637	-0.86395	-0.001526	0.022888	-0.14725	-0.52704	0.006409	-0.16251	0.013428	-0.25772	0.028381	0.10773	-0.03479	0.11383	-0.030975	-0.049438	0.006409	-0.009308	0.12024	-0.010223	0.49057	0.031433	-0.003052	-0.010376
53.817	0.002594	0.20538	-0.067902	0.007629	0.016785	0.012054	-0.1033	-0.00473	-0.013733	-0.86731	-0.001984	0.065002	-0.1915	-0.4393	-0.009308	-0.15091	0.018616	-0.12665	0.061493	0.095978	-0.021515	0.044861	-0.051727	-0.032043	0.05661	-0.01358	0.14313	-0.005341	0.62485	-0.004578	0.000305	-0.018005
53.818	0.01236	0.19089	-0.049744	0.011139	0.020752	0.004578	-0.10239	0.008698	-0.006561	-0.26154	-0.003052	0.056305	-0.26489	-0.071564	-0.023499	0.096741	0.002899	-0.16876	-0.087891	0.058441	-0.016937	0.046082	-0.1355	0.1355	0.14618	-0.000458	0.07431	-0.006256	0.3093	-0.071869	0.003662	-0.002136
53.819	0.017548	0.19318	-0.046387	0.007019	-0.020142	-0.14633	-0.11414	-0.006104	0.0177	0.30685	0.005951	0.010071	-0.27023	0.005798	-0.015564	0.40253	-0.002594	-0.065308	0.42191	0.006409	0.063477	0.014648	-0.10056	0.16357	0.16754	0.005951	-0.11292	-0.003052	1.2486	-0.14847	-0.000458	-0.002136
53.82	0.030823	0.18326	-0.042114	0.001526	0.012512	-0.17853	-0.10895	0.003815	0.037079	0.20355	-0.001526	-0.015106	-0.19501	-0.29343	-0.012054	0.11963	0.012054	-0.10101	0.54291	0.056915	0.21561	0.001373	0.010376	0.40176	0.076294	0.010529	-0.21713	-0.00351	0.73257	-0.17471	0.00061	-0.010986
53.821	0.059357	0.15457	-0.036469	0.011139	0.022583	-0.13306	-0.12924	0.009766	0.044708	-0.24811	0.011292	0.010681	-0.1387	-0.25803	-0.050659	-0.7637	0.027161	-0.14358	-0.21774	-0.019836	0.24628	-0.073242	0.014648	0.46432	0.19318	0.003357	-0.16068	-0.004578	-0.33676	-0.045776	0.001068	-0.003357
53.822	-0.030975	0.18738	-0.02533	-0.003204	-0.001373	-0.081482	-0.18631	0.004883	0.036621	-0.22553	0.010529	0.014648	0.023956	-0.16632	-0.039978	-0.69244	-0.005493	-0.19699	-0.0383	-0.098419	0.24628	-0.089874	-0.032959	0.40878	0.70602	-0.011292	-0.10437	-0.012054	-0.041504	0.03067	0	-0.001984
53.823	-0.016632	0.2002	-0.028839	-0.001831	-0.027618	-0.081787	-0.13794	0.005646	0.018463	-0.15305	0.006561	-0.034943	0.11856	0.13748	0.00885	0.97473	-0.023193	-0.15869	-0.38528	-0.17807	0.063477	-0.060272	-0.033722	0.36407	0.77927	-0.019379	-0.096741	-0.007172	1.0683	0.070953	0.001068	-0.011749
53.824	0.009766	0.18967	-0.0354	0.020752	-0.013275	-0.039673	-0.15823	0.008545	0.005035	-0.083008	0.003815	-0.02594	0.11322	0.068359	0.035858	-0.67825	-0.034485	-0.21011	-0.59738	-0.1651	0.001068	-0.047913	0.061798	0.10605	0.4071	-0.018768	-0.080261	-0.00412	0.60837	0.065002	-0.008545	-0.004578
53.825	0.017242	0.15945	-0.03891	0.006104	0.035858	-0.10223	-0.18402	0.003967	-0.005798	0.12451	-0.010834	0.000916	0.10651	-0.24002	0.010834	0.28397	-0.018616	-0.19531	0.41824	-0.13107	0.071869	-0.028534	0.11154	-0.032196	-0.11307	-0.01297	-0.062103	-0.00946	0.3862	0.034943	-0.001373	0
53.826	0.015411	0.19226	-0.032654	0.010834	0.041199	-0.040131	-0.15045	0.006256	-0.006561	0.13886	-0.000458	-0.005188	0.0737	-0.21133	0.00351	0.26886	0.005493	-0.10773	0.55161	-0.087433	0.094299	-0.043488	0.13519	-0.057983	-0.5954	-0.005341	-0.025482	-0.001068	-0.032043	0.027161	0.002594	-0.010376
53.827	0.009308	0.19486	-0.012207	0.006714	-0.023804	0.052795	-0.11856	0.001831	-0.011597	-0.14297	0.014801	-0.011749	0.032043	-0.080719	0.022736	0.36209	0.019379	-0.007324	0.48462	-0.060577	0.04425	0.007019	-0.005798	-0.20813	-0.69183	-0.003662	-0.029297	-0.00473	-0.58365	-0.036316	0.000458	-0.00351
53.828	0.017395	0.21896	0.005341	0.005188	-0.011902	0.061493	-0.12543	0.005798	0.003967	-0.2945	0.010071	-0.012207	0.010223	0.062256	0.036926	0.39032	0.019684	0.053864	0.103	0.023804	0.026398	0.015411	-0.053558	-0.24994	-0.60333	-0.007324	-0.017853	-0.007629	-0.045929	-0.048828	0.001984	-0.013428
53.829	0.006866	0.23117	0.00412	0.018158	0.062408	0.036011	-0.12009	0.005646	-0.003204	-0.14496	0.006714	-0.006256	0.004578	0.14801	0.031738	-0.14038	0.044861	0.084991	0.020599	0.12528	0.000153	-0.01709	-0.11185	0.043182	-0.44907	-0.002289	-0.025024	-0.006866	0.39902	-0.036926	-0.000458	-0.016174
